<svg xmlns="http://www.w3.org/2000/svg" viewBox="0 0 64 64" width="64" height="64">
  <defs>
    <linearGradient id="grad1" x1="0%" y1="0%" x2="100%" y2="100%">
      <stop offset="0%" style="stop-color:#3b82f6;stop-opacity:1" />
      <stop offset="100%" style="stop-color:#6366f1;stop-opacity:1" />
    </linearGradient>
  </defs>
  <!-- Background circle -->
  <circle cx="32" cy="32" r="30" fill="url(#grad1)"/>
  <!-- Gear/Tool icon -->
  <g fill="white">
    <!-- Outer gear teeth -->
    <path d="M32 8 L35 12 L29 12 Z" transform="rotate(0 32 32)"/>
    <path d="M32 8 L35 12 L29 12 Z" transform="rotate(45 32 32)"/>
    <path d="M32 8 L35 12 L29 12 Z" transform="rotate(90 32 32)"/>
    <path d="M32 8 L35 12 L29 12 Z" transform="rotate(135 32 32)"/>
    <path d="M32 8 L35 12 L29 12 Z" transform="rotate(180 32 32)"/>
    <path d="M32 8 L35 12 L29 12 Z" transform="rotate(225 32 32)"/>
    <path d="M32 8 L35 12 L29 12 Z" transform="rotate(270 32 32)"/>
    <path d="M32 8 L35 12 L29 12 Z" transform="rotate(315 32 32)"/>
    <!-- Main gear body -->
    <circle cx="32" cy="32" r="16" fill="white"/>
    <circle cx="32" cy="32" r="8" fill="url(#grad1)"/>
  </g>
  <!-- Binary code decoration -->
  <text x="22" y="35" font-family="monospace" font-size="8" fill="white" font-weight="bold">01</text>
</svg>
