<svg xmlns="http://www.w3.org/2000/svg" viewBox="0 0 64 64" width="64" height="64">
  <rect x="4" y="8" width="56" height="48" rx="4" fill="#111827" stroke="#22c55e" stroke-width="2"/>
  <rect x="4" y="8" width="56" height="10" rx="4" fill="#22c55e" opacity="0.2"/>
  <circle cx="10" cy="13" r="2" fill="#22c55e"/>
  <circle cx="16" cy="13" r="2" fill="#22c55e"/>

  <g fill="#22c55e">
    <circle cx="32" cy="37" r="11" />

    <g transform="translate(32,37)">
        <rect x="-2.5" y="-14" width="5" height="5" rx="0.5" transform="rotate(0)"/>
        <rect x="-2.5" y="-14" width="5" height="5" rx="0.5" transform="rotate(45)"/>
        <rect x="-2.5" y="-14" width="5" height="5" rx="0.5" transform="rotate(90)"/>
        <rect x="-2.5" y="-14" width="5" height="5" rx="0.5" transform="rotate(135)"/>
        <rect x="-2.5" y="-14" width="5" height="5" rx="0.5" transform="rotate(180)"/>
        <rect x="-2.5" y="-14" width="5" height="5" rx="0.5" transform="rotate(225)"/>
        <rect x="-2.5" y="-14" width="5" height="5" rx="0.5" transform="rotate(270)"/>
        <rect x="-2.5" y="-14" width="5" height="5" rx="0.5" transform="rotate(315)"/>
    </g>

    <circle cx="32" cy="37" r="6.5" fill="#111827"/>
  </g>

  <text x="32" y="39.5" font-family="monospace" font-size="7" fill="#22c55e" font-weight="bold" text-anchor="middle">01</text>
</svg>